<svg width="42" height="42" viewBox="0 0 42 42" fill="none" xmlns="http://www.w3.org/2000/svg">
<path d="M31.3056 22.6255H22.7021V31.2289C22.7021 31.6853 22.5208 32.123 22.1981 32.4457C21.8754 32.7684 21.4378 32.9496 20.9814 32.9496C20.5251 32.9496 20.0874 32.7684 19.7647 32.4457C19.442 32.123 19.2607 31.6853 19.2607 31.2289V22.6255H10.6572C10.2009 22.6255 9.7632 22.4442 9.4405 22.1215C9.11781 21.7988 8.93652 21.3611 8.93652 20.9048C8.93652 20.4484 9.11781 20.0107 9.4405 19.688C9.7632 19.3653 10.2009 19.1841 10.6572 19.1841H19.2607V10.5806C19.2607 10.1242 19.442 9.68654 19.7647 9.36384C20.0874 9.04115 20.5251 8.85986 20.9814 8.85986C21.4378 8.85986 21.8754 9.04115 22.1981 9.36384C22.5208 9.68654 22.7021 10.1242 22.7021 10.5806V19.1841H31.3056C31.762 19.1841 32.1996 19.3653 32.5223 19.688C32.845 20.0107 33.0263 20.4484 33.0263 20.9048C33.0263 21.3611 32.845 21.7988 32.5223 22.1215C32.1996 22.4442 31.762 22.6255 31.3056 22.6255Z" fill="white"/>
</svg>
