<svg width="36" height="38" viewBox="0 0 36 38" fill="none" xmlns="http://www.w3.org/2000/svg">
<path d="M15.8164 37.1736C14.98 37.1736 14.26 36.8948 13.6566 36.3372C13.0531 35.7796 12.6888 35.0981 12.5637 34.2927L12.1455 31.2259C11.7428 31.071 11.3636 30.8851 11.008 30.6683C10.6523 30.4514 10.3035 30.2191 9.96152 29.9712L7.08056 31.1794C6.30611 31.5201 5.53166 31.5511 4.75721 31.2723C3.98276 30.9935 3.37868 30.4979 2.94499 29.7854L0.761041 25.9751C0.327348 25.2626 0.203437 24.5036 0.389305 23.6982C0.575173 22.8928 0.993376 22.2267 1.64391 21.7001L4.10667 19.8414C4.07569 19.6246 4.0602 19.4152 4.0602 19.2132V17.9586C4.0602 17.7578 4.07569 17.5491 4.10667 17.3322L1.64391 15.4735C0.993376 14.9469 0.575173 14.2809 0.389305 13.4754C0.203437 12.67 0.327348 11.9111 0.761041 11.1986L2.94499 7.38826C3.37868 6.67577 3.98276 6.18012 4.75721 5.90132C5.53166 5.62251 6.30611 5.65349 7.08056 5.99425L9.96152 7.20239C10.3023 6.95457 10.6585 6.72223 11.0303 6.50539C11.402 6.28854 11.7737 6.10267 12.1455 5.94778L12.5637 2.88096C12.6876 2.07553 13.0519 1.39401 13.6566 0.836407C14.2613 0.278802 14.9812 0 15.8164 0H20.1843C21.0207 0 21.7412 0.278802 22.3459 0.836407C22.9506 1.39401 23.3143 2.07553 23.437 2.88096L23.8552 5.94778C24.2579 6.10267 24.6377 6.28854 24.9945 6.50539C25.3514 6.72223 25.6996 6.95457 26.0391 7.20239L28.9201 5.99425C29.6945 5.65349 30.469 5.62251 31.2434 5.90132C32.0179 6.18012 32.6219 6.67577 33.0556 7.38826L35.2396 11.1986C35.6733 11.9111 35.7972 12.67 35.6113 13.4754C35.4255 14.2809 35.0073 14.9469 34.3567 15.4735L31.894 17.3322C31.9249 17.5491 31.9404 17.7585 31.9404 17.9604V19.2132C31.9404 19.4152 31.9095 19.6246 31.8475 19.8414L34.3102 21.7001C34.9608 22.2267 35.379 22.8928 35.5649 23.6982C35.7507 24.5036 35.6268 25.2626 35.1931 25.9751L32.9627 29.7854C32.529 30.4979 31.9249 30.9935 31.1505 31.2723C30.376 31.5511 29.6016 31.5201 28.8271 31.1794L26.0391 29.9712C25.6984 30.2191 25.3421 30.4514 24.9704 30.6683C24.5986 30.8851 24.2269 31.071 23.8552 31.2259L23.437 34.2927C23.313 35.0981 22.9494 35.7796 22.3459 36.3372C21.7425 36.8948 21.0219 37.1736 20.1843 37.1736H15.8164ZM18.0933 25.0922C19.89 25.0922 21.4234 24.4572 22.6935 23.1871C23.9636 21.917 24.5986 20.3835 24.5986 18.5868C24.5986 16.7901 23.9636 15.2567 22.6935 13.9866C21.4234 12.7165 19.89 12.0814 18.0933 12.0814C16.2655 12.0814 14.7241 12.7165 13.4689 13.9866C12.2136 15.2567 11.5866 16.7901 11.5879 18.5868C11.5891 20.3835 12.2167 21.917 13.4707 23.1871C14.7247 24.4572 16.2655 25.0922 18.0933 25.0922Z" fill="white"/>
</svg>
